<svg version="1.1" id="Layer_1" xmlns="http://www.w3.org/2000/svg" xmlns:xlink="http://www.w3.org/1999/xlink" x="0px" y="0px"
	 width="100%" viewBox="0 0 1024 768" enable-background="new 0 0 1024 768" xml:space="preserve">
<path fill="#000000" opacity="1.000000" stroke="none" 
	d="
M346.838013,479.163879 
	C368.212006,503.089203 392.751709,523.240601 415.228180,545.519287 
	C418.281738,548.545959 421.389099,546.508484 424.510864,545.785156 
	C426.264526,545.378906 427.276886,543.310730 429.428223,543.607788 
	C431.615326,547.377686 427.446289,549.117188 426.595276,552.359619 
	C437.039124,559.172302 448.359253,563.610413 460.848785,564.651855 
	C479.447296,566.202698 497.888672,568.652771 516.016663,573.195923 
	C517.137573,573.476868 518.365784,573.889954 519.444153,573.693420 
	C528.925232,571.965149 538.346619,569.975159 548.013489,569.326233 
	C551.111450,569.118286 553.261108,566.103943 554.842773,563.794983 
	C557.174133,560.391785 560.043274,556.871460 559.431702,551.765137 
	C562.810242,552.583069 563.716553,555.781616 566.076538,557.911743 
	C568.631775,556.040161 572.624939,555.878540 573.117737,551.503906 
	C578.390381,553.996704 581.838684,545.154968 587.227844,550.152832 
	C588.985413,550.528809 587.446472,553.037964 589.431274,553.972595 
	C592.682495,554.128418 593.843445,550.285950 596.769226,549.649353 
	C603.495544,554.971558 603.652222,555.054626 611.387451,550.095703 
	C638.486145,532.723267 664.187439,513.410645 689.614868,493.713379 
	C692.743835,491.289520 695.773254,488.486298 700.510742,489.225830 
	C702.493591,489.535370 703.762695,487.190491 704.822937,485.468140 
	C708.174194,480.024078 712.445862,475.372650 717.212097,471.160553 
	C718.539551,469.987366 719.715393,468.469269 721.818604,468.412292 
	C723.130737,470.586426 721.565857,472.302216 720.891541,474.007507 
	C711.144958,498.656647 698.543091,521.635010 680.904846,541.617493 
	C678.879333,543.912170 677.537170,546.317932 676.937683,549.445923 
	C675.724915,555.773254 673.625488,557.185913 666.914917,557.368408 
	C665.916504,557.395508 664.892822,557.320007 663.925293,557.513794 
	C660.319885,558.235657 657.372009,559.509521 659.696716,565.063354 
	C653.513123,561.939392 648.266052,562.916992 642.722412,566.270325 
	C645.507568,570.716614 650.475769,574.330200 649.114929,580.705994 
	C646.546570,580.897400 645.668213,578.787231 644.526123,577.406799 
	C642.467834,574.919067 640.657532,574.349670 637.878601,576.546631 
	C631.151550,581.864685 626.194397,588.855164 620.175476,594.836060 
	C618.417725,596.582703 618.990906,599.248718 619.049438,601.562683 
	C619.112000,604.036072 618.091553,605.087402 615.523743,605.254089 
	C606.328125,605.851074 606.339355,605.927612 605.089966,614.965393 
	C605.025513,615.431519 604.698792,615.861267 604.469421,616.362183 
	C601.367859,617.229980 599.639221,615.051208 598.373596,613.081177 
	C595.585632,608.741394 592.096924,607.603210 587.295288,609.243347 
	C584.316528,610.260742 581.162415,610.753479 578.130737,611.632751 
	C576.883545,611.994385 575.598938,612.518188 574.886658,613.801208 
	C571.898193,619.184265 570.554199,619.578369 564.898315,616.616028 
	C560.470703,614.296997 556.110901,611.829895 551.110168,610.900024 
	C550.131348,610.717957 549.055054,610.177551 548.188110,610.411621 
	C538.898499,612.919678 530.117432,609.300476 521.164490,608.162231 
	C505.118195,606.122131 489.255615,607.966431 473.395111,609.865112 
	C469.551971,610.325134 467.048431,610.121399 467.461548,605.028748 
	C463.642029,605.845520 460.900055,604.104370 458.086060,602.326416 
	C448.069031,595.997375 437.336151,590.983093 426.859772,585.496887 
	C425.020630,584.533752 423.119690,584.286316 421.087738,584.223511 
	C412.001526,583.942810 403.696472,581.339783 396.687195,575.384338 
	C392.212524,571.582458 386.903656,570.517029 381.337189,570.394043 
	C359.074280,569.902283 347.327698,560.129089 342.740448,538.051208 
	C341.517517,532.165466 340.936523,525.993347 333.777100,523.760437 
	C332.967163,523.507812 332.375397,521.949402 332.035828,520.883972 
	C324.528625,497.329315 313.477600,475.248169 303.612396,452.680237 
	C300.145294,444.748840 297.789520,436.761627 298.669495,428.034088 
	C298.832397,426.418640 298.440002,424.515472 300.781403,424.130310 
	C304.712830,423.483612 304.633636,421.104401 304.074860,417.839294 
	C301.260254,401.392426 295.204773,386.129059 287.378204,371.531219 
	C285.384857,367.813263 284.714996,364.420654 285.561859,360.183655 
	C288.783173,344.067017 289.961975,327.580505 294.592621,311.702118 
	C298.122467,299.598358 304.194092,289.132904 312.994904,280.104248 
	C320.785919,272.111450 329.840271,265.433411 336.962677,256.746613 
	C339.326050,253.864136 341.470917,250.850769 342.396240,247.290176 
	C344.011414,241.074829 347.521454,236.291214 352.079590,231.902679 
	C362.279724,222.082199 372.260925,212.044357 382.626099,202.381836 
	C388.689117,196.729782 395.187378,194.589920 403.068573,195.836716 
	C408.878998,196.755905 412.607056,195.415070 415.841858,189.535339 
	C421.070709,180.031174 429.677124,174.839600 441.183929,176.473557 
	C444.143677,176.893814 446.405518,175.522842 448.453705,173.821991 
	C451.654083,171.164352 454.662384,168.276031 457.765808,165.500839 
	C459.369171,164.067093 460.944122,162.117050 463.368805,163.017975 
	C466.069733,164.021561 465.052612,166.632935 465.236786,168.685318 
	C465.291229,169.291794 465.451233,169.888809 465.667969,171.056290 
	C477.917053,162.952896 491.309143,158.435669 504.448730,153.275101 
	C509.598022,151.252716 513.425537,152.342987 517.260010,155.527054 
	C519.952148,157.762543 522.491638,160.262589 526.430542,159.934479 
	C527.796936,159.820648 528.478455,160.657593 528.927551,161.898514 
	C531.952637,170.257614 526.674683,178.231644 517.829102,178.279129 
	C507.339783,178.335419 496.857971,178.102890 486.442902,179.809921 
	C468.736481,182.711990 452.711792,189.939087 437.330414,198.790894 
	C426.935394,204.773102 416.474243,210.672546 406.376465,217.130890 
	C393.087921,225.629929 382.609863,237.443100 371.342621,248.278763 
	C355.042664,263.954407 342.063934,281.884857 334.863525,303.630402 
	C329.894379,318.637451 329.131683,334.294891 327.329254,349.796722 
	C326.215485,359.375732 325.225281,368.969055 324.134430,378.550812 
	C324.023132,379.528351 323.836182,380.639191 323.287689,381.403625 
	C315.695831,391.984833 319.158203,403.394745 320.687164,414.667633 
	C321.311127,419.268188 322.545685,423.799896 322.361176,428.720673 
	C320.247620,429.892700 315.444214,428.494171 317.107056,433.591736 
	C318.219208,437.001129 320.056885,438.976837 324.002350,435.951996 
	C331.760254,450.550446 334.595581,467.197784 346.838013,479.163879 
z"/>
<path fill="#000000" opacity="1.000000" stroke="none" 
	d="
M729.341797,356.456787 
	C724.827209,357.508362 724.142639,354.347229 723.915283,351.576904 
	C723.684265,348.760834 722.368408,347.110535 720.352722,345.408478 
	C712.671448,338.922180 707.785400,330.422089 703.485657,321.504700 
	C702.471802,319.402069 703.265930,317.602509 703.761719,315.712738 
	C706.492249,305.304749 704.059448,297.675568 695.332947,291.792419 
	C687.741455,286.674438 685.637939,278.571655 682.802368,270.793182 
	C680.976318,265.783936 680.435730,260.514679 680.583679,255.302139 
	C679.743408,255.166565 679.325073,254.958023 679.125916,255.087234 
	C671.248535,260.199066 664.922852,257.493347 657.906067,252.344940 
	C635.082336,235.598587 612.294739,218.750061 587.680908,204.609604 
	C584.138550,202.574554 580.584778,201.441605 576.417908,201.201904 
	C566.906921,200.654800 558.141907,197.634964 550.779663,191.322754 
	C546.917053,188.011063 544.251892,184.060883 545.774780,178.646652 
	C547.277771,173.303238 551.370789,171.592758 556.477295,171.427094 
	C557.968079,171.378723 559.529663,170.691696 560.922852,170.972336 
	C565.385803,171.871307 569.300964,171.621918 572.522705,167.810165 
	C573.219360,166.985947 574.963989,166.871185 576.255615,166.752350 
	C601.108765,164.466141 624.163940,170.151672 645.792542,182.356308 
	C663.580505,192.393784 677.796936,205.796097 688.161987,223.656433 
	C699.026428,242.377487 710.684570,260.660065 722.583923,278.747406 
	C727.235291,285.817627 727.067749,293.547485 728.229675,301.151672 
	C730.316467,314.808502 731.745605,328.542175 731.416138,342.399628 
	C731.393372,343.359131 731.243713,344.444031 732.493103,345.108276 
	C735.651123,344.158051 735.609253,339.096161 740.556763,339.117035 
	C735.347534,354.576599 732.722290,370.265839 731.235779,386.288147 
	C729.185425,383.983429 729.015015,381.296417 728.855591,378.657196 
	C728.491943,372.636902 729.663391,366.722198 730.205322,360.763062 
	C730.338867,359.294342 731.751099,357.581451 729.341797,356.456787 
z"/>
<path fill="#000000" opacity="1.000000" stroke="none" 
	d="
M477.053528,418.311462 
	C472.583771,417.182983 468.764923,419.204315 464.887939,419.181793 
	C458.265381,419.143280 451.640869,418.370941 445.031921,417.749969 
	C443.204590,417.578247 441.475739,417.115784 439.656830,417.897003 
	C431.727692,421.302460 424.150055,417.310852 416.102173,417.445251 
	C417.002869,414.898865 419.035187,416.339569 420.093628,415.012238 
	C417.165741,414.303650 414.873108,413.613342 412.798248,417.028259 
	C410.568756,420.697693 406.921661,419.727203 402.374329,414.814667 
	C398.132721,419.262512 386.520416,420.179260 379.037415,416.347717 
	C383.103333,414.996582 386.893677,416.008881 390.952484,415.488281 
	C387.433014,414.604828 383.951355,415.083496 380.410370,413.239197 
	C382.876160,411.235840 385.324127,412.340027 387.768463,411.773468 
	C385.614441,410.622986 382.904144,411.580170 381.261200,409.586273 
	C382.737946,408.021393 384.629700,409.079468 386.448883,408.209167 
	C385.204254,406.622772 382.781189,408.091309 381.827179,406.326294 
	C382.049774,404.335144 383.857971,405.127869 384.963013,404.573395 
	C384.436951,403.394104 382.361786,403.989502 382.186066,402.042542 
	C383.655304,401.791748 385.061859,401.551666 386.571472,401.294006 
	C385.772430,399.577789 383.412964,401.094696 382.903168,399.053253 
	C383.489563,396.974060 385.759430,398.485718 386.921539,397.456482 
	C385.705200,396.946442 384.527710,396.452698 383.350220,395.958954 
	C383.432373,395.523895 383.514526,395.088837 383.596680,394.653778 
	C391.287628,396.059235 399.793060,391.195618 406.747589,398.650940 
	C410.489807,393.617615 411.202271,393.614258 417.208252,397.151337 
	C419.696136,398.616516 422.648987,397.686188 425.899597,397.938110 
	C423.859741,396.845703 421.759766,397.443176 420.432159,395.866089 
	C420.434021,394.664185 421.429810,394.732910 422.170410,394.727875 
	C435.277435,394.638733 448.384735,394.591217 461.491913,394.519379 
	C464.369507,394.503601 465.163422,395.751251 464.739563,398.626068 
	C464.131531,402.749725 462.344849,406.787689 463.130188,411.404907 
	C466.396729,410.857941 466.308136,408.546143 466.653809,406.509491 
	C469.076447,392.236328 467.453308,395.097076 480.159241,394.600677 
	C494.462189,394.041931 508.783417,394.377472 523.065125,394.418518 
	C540.534607,394.468689 558.023499,394.350494 575.501526,394.623688 
	C579.204224,394.681549 580.670471,395.950256 580.393616,399.607697 
	C580.301880,400.819550 579.909058,402.240082 581.005981,403.439758 
	C583.985046,401.186737 582.775696,395.997894 586.969849,394.843262 
	C588.836731,394.329315 590.897156,394.397034 592.888428,395.465729 
	C592.482971,401.189178 588.359802,405.571960 587.834900,411.148865 
	C593.649536,414.027344 597.278931,407.438385 602.675903,408.588196 
	C601.743591,406.577484 599.439087,408.020203 598.872253,406.173859 
	C599.183105,404.306305 601.068970,405.290344 602.037231,404.522339 
	C601.072693,403.969788 600.119995,403.423950 599.142090,402.863708 
	C600.128235,400.708557 602.407104,402.429413 603.512329,401.002106 
	C602.426636,399.653503 600.129395,401.100433 599.261414,399.124023 
	C600.648193,396.908020 602.958008,398.402466 604.834290,397.660797 
	C603.591431,396.464935 601.349854,397.256287 599.920715,394.423248 
	C607.761963,396.016296 615.258240,392.108612 622.296326,397.272491 
	C624.008240,398.528534 627.095642,397.909851 630.288696,398.226318 
	C627.789490,396.458557 624.925476,397.867493 622.782104,394.516205 
	C630.330750,394.516205 637.171204,394.341461 643.995361,394.599609 
	C646.846191,394.707458 648.694397,396.626709 649.521484,399.585052 
	C652.961243,411.889160 643.815857,421.617798 631.569458,418.483185 
	C627.880127,417.538849 623.857056,419.358307 620.394165,416.982300 
	C619.551758,415.648865 622.129272,416.008453 621.452698,414.706024 
	C619.995056,414.258240 618.284302,413.854248 617.729919,415.770844 
	C616.504761,420.005951 613.216248,418.943542 610.359863,418.879822 
	C600.670227,418.663696 590.980042,417.635864 581.296753,419.000671 
	C580.968201,419.046997 580.626038,419.082581 580.299377,419.044556 
	C564.078430,417.158081 547.721497,420.536255 531.531006,417.801208 
	C528.073975,417.217255 525.075928,419.046021 521.732605,419.231232 
	C513.755798,419.673157 505.830536,417.362915 497.840485,419.016510 
	C495.785461,419.441772 494.087036,418.001007 492.502625,416.638184 
	C487.759247,420.898834 482.498505,418.263397 477.053528,418.311462 
M636.774841,405.407898 
	C636.488342,407.427551 635.469116,409.517273 637.449585,411.787415 
	C641.998535,409.732025 640.400757,405.846252 640.864929,402.693512 
	C638.395996,401.676147 637.529419,402.897797 636.774841,405.407898 
M434.836853,402.613495 
	C432.119232,405.091797 431.822266,407.999878 433.023682,411.342987 
	C437.181000,409.610718 437.831146,407.090485 434.836853,402.613495 
M523.696045,403.588928 
	C521.573853,405.708954 521.739380,408.108887 522.515991,410.764832 
	C527.052856,408.745728 527.514160,406.574402 523.696045,403.588928 
z"/>
<path fill="#000000" opacity="1.000000" stroke="none" 
	d="
M511.304138,382.374329 
	C506.449188,382.151093 502.284821,382.128052 503.104523,388.608643 
	C503.323700,390.341095 502.315887,392.445129 500.349518,391.883545 
	C497.593079,391.096313 493.520630,391.724518 492.952423,387.384460 
	C492.239105,381.936340 493.612671,377.128906 498.046082,373.537109 
	C499.574646,372.298737 501.208984,371.190918 502.974915,369.890991 
	C500.676910,366.852966 498.796021,363.984650 494.388397,363.937286 
	C490.932251,363.900146 489.018311,361.373413 488.936951,357.944519 
	C488.848633,354.223572 487.779572,349.700470 492.484772,348.049652 
	C495.244354,347.081512 496.391357,345.457764 497.470306,343.104919 
	C500.485382,336.529846 505.424927,332.381256 512.936157,332.493805 
	C520.178284,332.602386 524.999329,336.664276 528.029114,342.993988 
	C529.105896,345.243591 529.961548,347.114380 532.848877,348.074219 
	C538.004333,349.787964 536.118225,354.665680 536.291321,358.426910 
	C536.448792,361.846588 534.301086,363.513428 531.118591,364.031219 
	C529.500000,364.294556 527.863770,364.230927 526.412964,365.363983 
	C522.804016,368.182556 522.665466,369.798523 526.204834,372.626373 
	C528.854187,374.743134 531.241150,377.045135 532.092529,380.445190 
	C533.653870,386.680847 531.060852,390.956299 524.973450,392.342712 
	C523.515869,392.674652 522.913025,391.883881 522.540894,390.560333 
	C520.242554,382.385498 520.223877,382.390747 511.304138,382.374329 
M518.816772,340.925354 
	C517.852051,337.278931 512.531738,335.694794 508.603119,337.881134 
	C507.724884,338.369812 506.777557,338.857971 506.721985,339.997284 
	C506.654388,341.382233 507.653778,342.196533 508.775787,342.487823 
	C512.063721,343.341583 515.343323,343.514252 518.816772,340.925354 
M510.999817,361.651550 
	C511.571838,361.775208 512.181519,362.425385 512.864014,361.233246 
	C509.397125,359.893799 506.101807,359.666412 502.632416,361.103027 
	C503.231842,363.593811 504.490204,364.902954 507.090424,365.410309 
	C507.675293,363.720673 507.116150,360.626343 510.999817,361.651550 
M520.923157,360.342682 
	C519.817810,360.342682 518.712463,360.342682 516.983154,360.342682 
	C518.412048,362.463501 518.065918,364.272247 517.462402,366.169769 
	C519.409302,364.596497 523.245972,364.526062 520.923157,360.342682 
z"/>
<path fill="#000000" opacity="1.000000" stroke="none" 
	d="
M384.012878,423.984131 
	C387.738281,430.461426 386.190063,435.788879 380.608856,436.851959 
	C379.657684,437.033112 378.576904,437.098022 377.670197,436.830170 
	C375.805145,436.279175 374.530182,426.843201 375.974396,423.834595 
	C377.407471,420.849121 379.806183,422.046906 381.988861,422.747833 
	C382.603607,422.945282 383.140411,423.385498 384.012878,423.984131 
z"/>
<path fill="#000000" opacity="1.000000" stroke="none" 
	d="
M640.484985,433.186462 
	C640.599182,430.655701 639.261353,428.688934 639.779602,426.442352 
	C640.315552,424.119110 641.536621,422.448120 643.872742,421.930084 
	C646.446472,421.359283 647.991760,422.930634 648.909058,425.050934 
	C650.051758,427.692383 650.608154,430.485321 649.536499,433.299622 
	C648.736328,435.401062 647.479248,437.191711 644.944824,437.276337 
	C642.424988,437.360504 640.889099,436.082916 640.484985,433.186462 
z"/>
<path fill="#000000" opacity="1.000000" stroke="none" 
	d="
M608.668457,421.913239 
	C613.242432,425.618622 614.284973,430.390503 611.752869,434.750946 
	C610.117798,437.566803 607.594788,438.396576 605.162292,436.232513 
	C602.332214,433.714844 602.664673,429.920654 602.977722,426.556488 
	C603.243042,423.704895 604.981079,421.681030 608.668457,421.913239 
z"/>
<path fill="#000000" opacity="1.000000" stroke="none" 
	d="
M621.630371,425.642151 
	C622.738342,422.882965 624.427368,421.336395 627.104187,421.957703 
	C629.676575,422.554749 630.689819,424.827209 631.076477,427.158478 
	C631.368652,428.920166 631.395203,430.834076 631.026794,432.571442 
	C630.494385,435.082489 629.293884,437.439575 626.158691,437.221313 
	C623.231323,437.017517 621.811829,435.405396 622.073853,432.251556 
	C622.245300,430.187927 620.392883,428.222107 621.630371,425.642151 
z"/>
<path fill="#000000" opacity="1.000000" stroke="none" 
	d="
M496.224731,421.807983 
	C499.861023,421.451782 502.873749,421.920074 503.723389,425.570190 
	C504.484558,428.840332 502.068146,430.333130 499.430298,431.284332 
	C497.687439,431.912842 497.547363,433.319427 497.184937,434.793854 
	C496.660614,436.927185 495.355530,437.650391 493.698822,435.840942 
	C491.619293,433.569672 493.135223,424.112762 496.224731,421.807983 
z"/>
<path fill="#000000" opacity="1.000000" stroke="none" 
	d="
M531.360046,434.555542 
	C531.302368,431.889099 531.087158,429.546021 531.360840,427.261475 
	C531.595886,425.299561 530.863647,422.603455 533.817993,421.924744 
	C535.649658,421.503967 537.572693,421.716187 538.852539,423.282562 
	C540.944763,425.843109 537.577698,426.852783 537.037231,428.722290 
	C538.453430,430.998627 539.857849,433.224945 541.210266,435.482483 
	C541.332947,435.687317 541.120483,436.092896 540.980103,436.863800 
	C537.658875,436.580078 537.229004,432.993134 534.833191,431.540161 
	C533.606628,432.618835 534.498413,434.388031 533.705688,435.519165 
	C532.508484,437.227386 531.893860,436.184570 531.360046,434.555542 
z"/>
<path fill="#000000" opacity="1.000000" stroke="none" 
	d="
M483.388214,432.255249 
	C482.115967,435.751709 480.112427,437.815399 476.548828,437.059845 
	C473.338226,436.379211 472.131287,433.771271 471.745850,430.824341 
	C471.291504,427.350433 471.839386,424.084198 475.238464,422.227020 
	C478.338165,420.533447 481.516907,422.164032 483.005096,426.061707 
	C483.717285,427.926971 484.189117,429.866974 483.388214,432.255249 
M477.482819,424.537933 
	C474.315155,426.815125 473.266876,430.804016 475.198334,433.208435 
	C476.334076,434.622314 477.789856,434.949585 479.002380,433.629333 
	C481.500397,430.909332 481.280975,428.005951 478.971893,425.215515 
	C478.772125,424.974060 478.433533,424.847412 477.482819,424.537933 
z"/>
<path fill="#000000" opacity="1.000000" stroke="none" 
	d="
M462.787537,433.321564 
	C462.877838,439.374359 458.491730,436.642029 455.926910,437.139465 
	C453.443756,437.621094 451.682159,436.368988 451.815063,433.535614 
	C451.988342,429.841309 451.065674,426.004303 453.548248,422.040436 
	C454.403320,427.723236 455.722626,432.858002 462.787537,433.321564 
z"/>
<path fill="#000000" opacity="1.000000" stroke="none" 
	d="
M399.140686,427.478149 
	C400.945190,427.985321 402.800446,426.919098 404.051910,428.712524 
	C402.800415,431.560608 397.461334,428.352051 397.724365,432.567200 
	C397.964172,436.410248 402.568512,433.251404 404.337280,435.965240 
	C401.342743,437.645050 398.436462,437.864777 395.780609,435.724304 
	C394.262421,434.500732 394.312469,424.377289 395.863800,423.222229 
	C398.529266,421.237701 401.459747,421.052063 404.570496,423.268127 
	C398.656891,425.320801 398.656891,425.320801 399.140686,427.478149 
z"/>
<path fill="#000000" opacity="1.000000" stroke="none" 
	d="
M518.321350,424.513245 
	C516.835266,424.561737 515.418091,424.370514 515.476257,426.104980 
	C515.520142,427.413666 516.704407,427.456879 517.703247,427.578918 
	C518.818970,427.715179 520.074707,427.357666 520.931885,428.473633 
	C520.894043,430.234344 519.537170,430.008362 518.433594,430.112549 
	C516.783875,430.268280 514.733337,430.101685 514.641602,432.386688 
	C514.542236,434.861572 516.691223,434.446838 518.286621,434.644989 
	C519.345337,434.776520 520.669373,434.312958 521.398804,436.126526 
	C518.612793,437.663116 515.779846,437.865479 513.228699,436.011780 
	C511.615601,434.839691 511.569214,424.171326 513.165466,423.016052 
	C515.741333,421.151733 518.627991,421.221069 521.405579,422.810120 
	C521.099487,424.765961 519.711914,424.333160 518.321350,424.513245 
z"/>
<path fill="#000000" opacity="1.000000" stroke="none" 
	d="
M570.361511,429.181458 
	C569.232910,433.687531 572.520386,434.579041 575.524780,435.794647 
	C568.598999,439.153076 565.768799,437.625122 565.728455,431.008087 
	C565.718384,429.352936 565.698303,427.697266 565.728455,426.042664 
	C565.762024,424.204163 565.650391,422.022980 568.307556,422.166046 
	C570.937195,422.307617 570.641052,424.435669 570.499023,426.290802 
	C570.435974,427.115417 570.407654,427.942688 570.361511,429.181458 
z"/>
<path fill="#000000" opacity="1.000000" stroke="none" 
	d="
M440.360901,429.863586 
	C438.224701,430.367798 435.480652,429.461884 435.494080,432.500061 
	C435.506409,435.273895 438.048096,434.362366 439.675842,434.707916 
	C440.295380,434.839417 440.892853,435.074554 442.050568,435.432587 
	C439.076050,437.912079 436.339996,437.589996 433.738861,436.125824 
	C432.329254,435.332306 431.976624,424.318909 433.397675,423.240112 
	C436.074982,421.207733 439.024719,421.219574 442.236450,423.097046 
	C440.339691,425.423553 437.399811,423.431824 435.774292,425.281006 
	C435.697021,428.040497 437.796844,427.284668 439.230682,427.676514 
	C440.136444,427.924042 442.711548,427.302826 440.360901,429.863586 
z"/>
<path fill="#000000" opacity="1.000000" stroke="none" 
	d="
M416.039307,431.611633 
	C415.090851,428.484772 413.696442,425.810791 414.148407,422.393402 
	C417.535645,423.772247 416.645172,427.439941 418.563660,429.309540 
	C420.807343,427.490326 420.664551,424.089172 424.208618,423.057922 
	C422.628723,427.488983 421.048798,431.920044 419.437408,436.439392 
	C416.800629,435.275452 416.871277,433.392456 416.039307,431.611633 
z"/>
<path fill="#000000" opacity="1.000000" stroke="none" 
	d="
M584.779053,427.143494 
	C584.460266,425.393066 583.277222,424.006561 584.866272,422.417938 
	C588.010986,423.806488 586.617615,427.887909 589.099182,429.732910 
	C591.284363,427.931427 590.551270,424.295563 594.376160,422.062256 
	C593.317322,427.737305 591.431885,431.971222 589.311707,436.847565 
	C586.212219,433.880310 586.415100,430.274872 584.779053,427.143494 
z"/>
</svg>